<svg xmlns="http://www.w3.org/2000/svg" xmlns:xlink="http://www.w3.org/1999/xlink" version="1.1" id="Capa_1" x="0px" y="0px" viewBox="110 290 1000 440" style="enable-background:new 0 0 1280 1024;" xml:space="preserve"><script xmlns=""/>
<style type="text/css">
	.st0{fill-rule:evenodd;clip-rule:evenodd;fill:#202B6D;}
	.st1{fill-rule:evenodd;clip-rule:evenodd;fill:#0C66B0;}
	.st2{fill-rule:evenodd;clip-rule:evenodd;fill:#00B3EB;}
	.st3{fill-rule:evenodd;clip-rule:evenodd;fill:#118FD0;}
</style>
<g>
	<g>
		<path class="st0" d="M498.5,629.3c0-1.78,0-3.13,0-4.49c0-32.74,0.01-65.48-0.04-98.22c0-2.03-0.54-4.05-0.8-6.08    c-0.08-0.59-0.11-1.18-0.11-1.77c-0.1-15.92-0.18-31.84-0.27-47.77c0-0.39,0.05-0.78,0.09-1.36c0.66-0.15,1.29-0.41,1.92-0.41    c4.45-0.04,8.9-0.06,13.35-0.01c2.59,0.03,2.78,0.22,2.87,2.97c0.13,4.15,0.15,8.3,0.25,12.46c0.03,1.03,0.2,2.06,0.31,3.09    c0.22,0.07,0.44,0.15,0.66,0.22c1.2-1.31,2.63-2.48,3.55-3.97c2.3-3.76,5.71-6.35,9.04-9.01c4.33-3.46,9.43-5.71,14.67-6.88    c6.87-1.53,13.97-2.78,21.07-0.7c0.38,0.11,0.79,0.23,1.17,0.19c2.66-0.26,5.06,0.83,7.31,1.83c3.89,1.72,7.9,3.51,11.2,6.11    c3.99,3.14,7.55,6.91,10.38,11.25c2.6,3.98,4.63,8.21,6.21,12.71c1.31,3.7,2.24,7.42,3.03,11.27c1.67,8.17,0.73,16.32,0.81,24.48    c-1.37,3.39-1.21,7.09-2.18,10.62c-1.28,4.64-3.11,9.03-5.04,13.35c-1.35,3.03-3.62,5.69-5.67,8.38    c-3.27,4.29-7.25,7.9-11.9,10.59c-4,2.31-8.13,4.37-12.74,5.49c-2.12,0.52-4.19,0.81-6.33,1.03c-2.33,0.24-4.65,1-6.95,0.91    c-4.67-0.18-9.29-0.84-13.86-2.05c-6.29-1.67-11.64-4.86-16.33-9.2c-1.74-1.61-3.1-3.63-4.71-5.56c-1.24,1.14-0.81,2.6-0.81,3.89    c-0.03,15.73-0.02,31.45-0.02,47.18c0,2.27,0.02,4.55-0.01,6.82c-0.01,0.77-0.12,1.53-0.22,2.68    C511.83,629.4,505.38,629.44,498.5,629.3z M518.59,527.62c-0.04,0-0.08,0-0.12,0c0,2.97,0.08,5.94-0.02,8.9    c-0.21,6.23,1.27,12.01,4.5,17.33c3.08,5.07,7.19,9.17,12.4,11.94c4.55,2.42,9.53,3.6,14.72,3.46c3.05-0.08,6.22-0.05,9.1-0.87    c3.01-0.86,6.06-1.88,8.78-3.76c3.54-2.45,6.62-5.31,8.99-8.84c2.84-4.22,5.23-8.68,6.11-13.8c0.65-3.75,1.7-7.45,2.02-11.22    c0.41-4.77,0.26-9.51-0.77-14.33c-0.86-4.02-1.46-8.03-3.06-11.88c-2.5-6.03-5.96-11.3-11.16-15.26    c-2.22-1.69-4.67-3.14-7.19-4.33c-2.66-1.24-5.63-1.49-8.56-1.75c-7.57-0.68-14.71,0.72-20.85,5.21    c-5.74,4.2-10.42,9.54-12.64,16.47c-1.03,3.22-2.5,6.38-2.31,9.98C518.75,519.11,518.59,523.37,518.59,527.62z"/>
		<path class="st0" d="M356.74,562.58c0.63,2.11,1.15,3.76,1.62,5.43c0.82,2.91,1.62,5.82,2.42,8.73c0.13,0.46,0.22,0.94,0.34,1.44    c-3.26,1.77-6.57,3-10.12,3.71c-3.05,0.61-6.02,1.6-9.03,2.41c-0.28,0.08-0.58,0.15-0.87,0.15c-7.01-0.09-13.84,2.15-20.9,1.5    c-2.16-0.2-4.36,0.09-6.52-0.07c-2.14-0.16-4.26-0.61-6.38-0.93c-0.59-0.09-1.18-0.28-1.76-0.23c-3.82,0.36-7.49-0.77-11-1.75    c-3.48-0.98-7.02-2.1-10.35-3.81c-2.9-1.49-5.89-2.77-8.74-4.42c-5.17-3-9.65-6.76-13.87-10.94c-5.54-5.48-9.51-11.98-12.9-18.9    c-2.07-4.21-3.2-8.75-4.62-13.2c-3.56-11.14-2.94-22.56-2.93-33.98c0-4.79,1.33-9.35,1.88-14.03c0.28-2.38,1.41-4.66,2.17-6.98    c0.48-1.48,1.06-2.94,1.45-4.44c1.32-5.05,3.98-9.55,6.67-13.82c3.98-6.33,8.95-12,14.72-16.93c4.31-3.68,9.05-6.64,13.9-9.47    c2.32-1.35,4.91-2.25,7.42-3.26c2.34-0.94,4.7-1.88,7.11-2.58c2.62-0.76,5.3-1.34,7.99-1.8c3.19-0.55,6.41-1.18,9.64-1.25    c7.4-0.17,14.83-0.25,22.22,0.08c4.27,0.19,8.57,0.8,12.7,2.17c2.4,0.8,4.91,1.27,7.32,2.03c1.2,0.38,2.39,0.94,3.39,1.68    c0.44,0.33,0.65,1.39,0.49,2c-1.1,4.34-2.32,8.65-3.5,12.97c-0.38,1.38-1.1,1.74-2.41,1.23c-3.08-1.19-6.09-2.63-9.25-3.51    c-3.19-0.89-6.52-1.6-9.8-1.71c-7.2-0.25-14.42-0.13-21.63-0.01c-1.52,0.02-3.04,0.67-4.56,1.02c-0.57,0.13-1.15,0.33-1.73,0.34    c-3.02,0.06-5.62,1.38-8.27,2.62c-2.45,1.14-5.08,1.93-7.43,3.24c-7.85,4.39-14.17,10.32-19.11,17.98    c-2.73,4.23-4.77,8.71-6.42,13.29c-2.36,6.56-3.65,13.46-3.45,20.55c0.17,5.93,0.1,11.86,0.27,17.79    c0.11,3.85,1.48,7.47,2.36,11.18c0.98,4.13,2.99,7.78,4.69,11.57c1.75,3.91,4.27,7.33,7.05,10.55c2.98,3.46,6.4,6.43,10.23,8.92    c3.42,2.23,6.93,4.29,10.9,5.44c1.49,0.43,2.89,1.18,4.38,1.57c3.22,0.84,6.46,1.56,9.71,2.28c0.77,0.17,1.57,0.22,2.36,0.23    c5.83,0.03,11.68,0.32,17.49-0.05c4.16-0.27,8.28-1.38,12.39-2.24c2.66-0.55,5.29-1.26,7.9-2.03    C353.73,563.98,355,563.31,356.74,562.58z"/>
		<path class="st0" d="M979.22,562.75c1.24,5.16,2.33,9.68,3.42,14.17c-2.76,1.07-5.24,2.21-7.83,2.98c-2.7,0.8-5.51,1.24-8.27,1.82    c-0.48,0.1-1.05-0.02-1.46,0.2c-3.03,1.62-6.35,1.19-9.58,1.44c-3.8,0.3-7.6,0.99-11.4,0.93c-4.3-0.06-8.75-0.22-12.86-1.33    c-4.74-1.28-9.49-2.69-14.01-4.87c-6.81-3.28-12.41-7.88-16.97-13.75c-2.12-2.73-3.62-5.94-5.43-8.91    c-2.11-3.48-3.23-7.4-4.05-11.25c-0.86-4.09-2.06-8.19-1.83-12.51c0.22-4.24,0.09-8.5,0.12-12.76c0.02-4.36,1.26-8.51,2.33-12.67    c0.58-2.26,1.24-4.51,1.96-6.74c0.36-1.09,0.99-2.08,1.44-3.13c2.84-6.57,6.69-12.46,11.91-17.41c4.62-4.39,9.9-7.73,15.83-10.1    c3.39-1.36,6.86-2.06,10.44-2.67c3.79-0.64,7.52-1.54,11.38-1.17c1.34,0.13,2.65,0.52,3.98,0.77c1.07,0.2,2.13,0.42,3.21,0.51    c4.45,0.4,8.45,2.01,12.45,3.95c4.01,1.94,7.42,4.54,10.46,7.68c3.61,3.72,6.58,7.91,8.44,12.81c1.24,3.27,3.03,6.41,3.77,9.78    c1.03,4.77,2.38,9.53,2.1,14.54c-0.23,4.22-0.14,8.47-0.2,13.12c-5.47,0.22-10.67,0.08-15.86,0.1    c-5.24,0.03-10.49,0.01-15.73,0.01c-5.34,0-10.68,0-16.02,0c-5.24,0-10.48,0-15.73,0c-5.23,0-10.47,0-15.8,0    c-0.3,0.77-0.78,1.4-0.75,2c0.2,3.51,0.13,7.01,1.21,10.5c0.92,3,1.85,5.95,3.32,8.71c2.26,4.23,5.03,7.98,8.98,10.91    c2.93,2.17,6.12,3.77,9.39,5.17c2.21,0.95,4.7,1.68,7.09,1.74c7.61,0.2,15.23,0.3,22.83-0.09c3.13-0.16,6.34-0.88,9.39-2.17    C973.5,563.94,976.42,563.5,979.22,562.75z M909.2,513.8c1.12,0.07,1.89,0.16,2.67,0.16c18.07,0.01,36.14,0.01,54.21,0    c0.49,0,0.99,0.03,1.48-0.04c1.59-0.24,2.15-1.16,1.81-2.69c-0.28-1.22-0.49-2.47-0.64-3.71c-0.21-1.76,0.02-3.65-0.55-5.27    c-1.43-4.01-2.69-8.16-5.43-11.54c-1.63-2.01-3.22-4.24-5.32-5.63c-3.97-2.62-8.25-4.56-13.26-4.78c-6.04-0.26-11.75,0.03-17.32,3    c-6.22,3.32-10.39,8.32-13.55,14.33c-1.49,2.84-2.5,5.9-3.45,9C909.12,509,908.92,511.18,909.2,513.8z"/>
		<path class="st0" d="M711.65,489.18c-1.59-4.35-3.05-8.34-4.57-12.49c0.47-1.82,2.44-2.18,3.91-2.93c2.51-1.28,5.2-2.2,7.84-3.23    c2.17-0.85,4.36-1.64,6.54-2.46c0.18-0.07,0.37-0.16,0.56-0.19c3.4-0.48,6.78-1.21,10.2-1.37c5.22-0.24,10.48-0.36,15.69-0.02    c10.18,0.68,19.11,4.33,25.8,12.37c3.38,4.06,6.07,8.51,7.14,13.83c0.61,3.04,1.72,5.98,2.42,9c0.33,1.42,0.3,2.95,0.3,4.43    c0.05,17.11,0.06,34.22,0.1,51.33c0.01,3.36,0.07,6.72,0.17,10.08c0.03,0.87,0.18,1.77,0.43,2.61c1.11,3.65,0.94,7.38,1.01,11.26    c-0.81,0.18-1.45,0.44-2.1,0.45c-4.45,0.04-8.9,0.06-13.35,0.01c-2.59-0.03-3.08-0.55-3.24-3.14c-0.13-2.17-0.25-4.35-0.26-6.52    c-0.01-1.64-0.85-2.67-1.84-3.55c-2.81,2.64-5.27,5.23-8.02,7.47c-3,2.45-6.43,4.18-10.02,5.74c-2.56,1.11-5.33,1.16-7.82,2.36    c-0.75,0.36-1.74,0.28-2.62,0.29c-3.66,0.04-7.32,0.07-10.98,0.05c-3.66-0.03-7.04-1.14-10.43-2.51    c-5.56-2.24-10.08-5.69-13.48-10.57c-1.76-2.53-3.23-5.21-4.22-8.23c-2.2-6.7-1.62-13.54-0.83-20.2c0.65-5.5,3.64-10.4,7.4-14.65    c3.63-4.12,8.13-7.14,12.79-9.9c2.15-1.27,4.61-2.08,6.99-2.89c3.23-1.09,6.47-2.31,9.8-2.87c4.16-0.71,8.24-1.88,12.57-1.78    c3,0.07,6.02-0.7,9.04-0.98c1.87-0.17,3.75-0.12,5.63-0.2c0.96-0.04,1.92-0.18,3.11-0.3c0.01-3.24,0.4-6.19-0.7-9.21    c-0.76-2.07-0.85-4.31-1.85-6.43c-2.36-4.98-5.76-8.48-11-10.46c-4.47-1.69-9.05-3.18-13.7-2.45c-4.4,0.69-9.04,0.21-13.24,2.3    c-1.45,0.72-3.11,1.13-4.72,1.43c-3.25,0.61-5.92,2.4-8.71,3.96C712.91,488.89,712.33,488.97,711.65,489.18z M767.26,524.27    c-8.05-1.14-15.61,0.45-23.2,1.37c-0.1,0.01-0.19,0.06-0.28,0.09c-2.3,0.8-4.55,1.79-6.91,2.36c-4.29,1.03-7.92,3.27-11.05,6.17    c-3.58,3.32-5.82,7.58-6.08,12.55c-0.19,3.79-0.42,7.56,1.13,11.32c1.39,3.36,3.28,6.03,6.2,8.16c2.63,1.91,5.64,2.59,8.68,3.27    c1.33,0.3,2.74,0.74,4.04,0.58c2.92-0.36,5.93-0.68,8.67-1.68c6.42-2.34,11.94-5.98,15.49-12.14c1.52-2.63,3.16-5.27,3.39-8.27    c0.41-5.31,0.46-10.65,0.48-15.98C767.85,529.51,767.47,526.97,767.26,524.27z"/>
		<path class="st0" d="M466.25,583.16c-6.01,0.27-11.88,0.1-17.61,0.11c-2.34-4.2-1.53-8.69-2.27-12.98    c-1.26-0.19-2.05-0.17-2.97,0.86c-1.98,2.23-4.07,4.42-6.43,6.22c-4.19,3.2-8.91,5.74-14,6.94c-5.52,1.3-11.23,2.32-16.98,1.56    c-10.15-1.35-18.94-5.22-24.83-14.11c-1.77-2.67-2.97-5.59-4.13-8.61c-2.08-5.43-1.54-10.96-1.06-16.38    c0.4-4.52,2.31-8.86,4.76-12.8c2.79-4.51,6.44-8.18,10.88-11.08c4.06-2.65,8.31-4.79,12.98-6.25c3.35-1.04,6.78-1.82,10.05-2.92    c4.21-1.42,8.56-1.05,12.77-2.18c3.25-0.87,6.87-0.35,10.33-0.43c1.85-0.04,3.71-0.01,5.61-0.01c0.78-3.05,0.63-5.84,0.24-8.54    c-0.68-4.67-2.16-9.06-5.46-12.67c-3.03-3.31-6.63-5.23-10.98-6.62c-4.43-1.42-8.75-1.12-13.13-1.19    c-1.53-0.03-3.07,0.53-4.61,0.84c-0.97,0.19-1.92,0.45-2.89,0.59c-4.08,0.59-7.95,1.81-11.64,3.66c-1.63,0.82-3.25,1.66-4.91,2.41    c-0.58,0.26-1.28,0.26-2.02,0.4c-0.75-2.32-1.45-4.45-2.12-6.58c-0.64-2.02-1.25-4.04-1.82-5.87c2.38-3.01,5.66-3.69,8.47-5.05    c2.78-1.35,5.8-2.39,8.83-3.06c4.3-0.94,8.58-2.13,13.08-1.91c1.34,0.07,2.69-0.47,4.05-0.55c1.66-0.11,3.34-0.13,5-0.02    c1.66,0.11,3.3,0.57,4.96,0.64c9.49,0.39,17.62,4.1,24.39,10.54c2.93,2.78,5.23,6.25,6.63,10.19c0.68,1.91,1.53,3.77,2.3,5.64    c0.07,0.18,0.26,0.32,0.29,0.5c0.64,3.66,1.75,7.32,1.8,10.99c0.25,16.9,0.15,33.81,0.29,50.72c0.04,4.43,0.5,8.86,0.76,13.28    c0.12,1.97,0.24,3.94,0.32,5.91c0.08,2.06-0.05,4.14,1.02,6.04C466.42,581.75,466.25,582.32,466.25,583.16z M444.99,536.26    C444.99,536.26,444.99,536.26,444.99,536.26c-0.01-2.77,0.03-5.54-0.02-8.31c-0.04-2.22-0.39-2.63-2.59-2.68    c-8.57-0.18-17.04,0.03-25.39,2.67c-3.84,1.21-7.47,2.64-10.91,4.64c-6.2,3.62-9.1,9.4-10.12,16.21    c-0.49,3.24,0.51,6.33,1.29,9.52c1.45,5.97,7.86,11.16,12.88,11.88c5.42,0.78,11.03,1.18,16.28-1.33c0.87-0.42,1.7-0.95,2.6-1.26    c5.22-1.82,8.83-5.69,11.62-10.09c3.12-4.93,4.53-10.57,4.37-16.5C444.96,539.42,444.99,537.84,444.99,536.26z"/>
		<path class="st0" d="M1049.88,536.47c-3.94,6.65-7.45,12.76-11.15,18.76c-2.84,4.61-5.96,9.04-8.89,13.59    c-2.31,3.59-4.52,7.24-6.81,10.84c-0.68,1.07-1.43,1.99-2.96,1.98c-6.43-0.07-12.86-0.03-19.28-0.05c-0.37,0-0.74-0.16-1.47-0.33    c13.38-19.35,26.62-38.51,40.03-57.92c-3.18-4.6-6.36-9.2-9.54-13.8c-3.2-4.62-6.39-9.25-9.6-13.86    c-3.16-4.54-6.22-9.15-9.53-13.57c-6.43-8.58-8.6-11.93-8.73-14.28c0.87-0.05,1.74-0.14,2.61-0.14    c5.44-0.01,10.88,0.05,16.32-0.04c2.05-0.03,3.3,0.43,4.42,2.47c2.03,3.72,4.69,7.1,7.03,10.65c4.89,7.44,9.74,14.89,14.6,22.35    c1.43,2.19,2.8,4.42,4.43,6.99c0.74-0.52,1.62-0.83,2-1.44c4.05-6.61,7.94-13.33,12.04-19.91c2.92-4.69,6.09-9.23,9.13-13.85    c1.49-2.26,2.94-4.54,4.42-6.83c2.79-0.62,20.06-0.63,22.18,0.08c-4.06,5.69-8.1,11.3-12.09,16.95    c-3.56,5.05-7.08,10.14-10.6,15.22c-3.15,4.54-6.28,9.1-9.41,13.65c-1.59,2.31-3.09,4.67-4.76,6.91    c-0.86,1.16-0.76,2.15-0.04,3.22c2,2.96,4.02,5.91,6.02,8.87c3.64,5.39,7.24,10.8,10.91,16.15c3.55,5.17,7.18,10.29,10.78,15.43    c2.39,3.41,4.79,6.81,7.16,10.23c1.04,1.49,2.06,3,3.02,4.55c0.7,1.12,0.34,1.94-0.96,2.04c-1.38,0.11-2.77,0.04-4.15,0.04    c-4.55,0-9.1-0.09-13.65,0.04c-2.43,0.07-3.88-0.8-5.21-2.94c-3.85-6.17-8.08-12.11-12.02-18.22    c-4.71-7.31-9.25-14.73-13.94-22.06C1051.74,537.56,1050.8,537.17,1049.88,536.47z"/>
		<path class="st0" d="M872.64,566.4c0.4,4.98,0.79,9.75,1.19,14.66c-2.38,1.29-4.82,2.28-7.7,2.36c-2.81,0.07-5.61,0.7-8.42,1.07    c-4.39,0.58-8.79-0.26-12.8-1.52c-8.01-2.5-13.98-7.53-16.77-15.99c-2.1-6.36-2.84-12.78-2.82-19.4    c0.03-18.98,0.01-37.96,0.01-56.95c0-1.19,0.02-2.38-0.11-3.55c-0.27-2.44-1.17-3.27-3.64-3.31c-3.36-0.05-6.72-0.02-10.08-0.02    c-1.07,0-2.14,0-3.51,0c-0.11-1.35-0.2-2.39-0.27-3.43c-0.19-2.75-0.32-5.5-0.58-8.25c-0.29-3.04,0.62-4.11,3.73-4.13    c3.56-0.02,7.12,0.02,10.68-0.01c3.23-0.03,3.49-0.29,3.5-3.61c0.02-6.62-0.01-13.25,0.02-19.87c0.01-1.25,0.21-2.5,0.34-3.8    c4.8-1.16,9.36-2.25,13.9-3.4c0.74-0.19,1.39-0.73,2.11-1.02c2.36-0.93,3.59-0.14,3.61,2.43c0.04,8.3,0,16.61,0.03,24.91    c0,1.35,0.19,2.69,0.31,4.2c9.68,0,19.04,0,28.73,0c0.52,5.23,0.28,10.29,0.15,15.73c-9.56,0-18.89,0-28.43,0    c-0.15,1.2-0.34,2.05-0.34,2.9c0.01,21.55-0.04,43.1,0.14,64.65c0.03,4.09,1.1,8.06,3.84,11.49c2.37,2.96,5.35,4.59,8.95,4.78    c4.41,0.23,8.89,0.59,13.19-1C871.84,566.24,872.17,566.36,872.64,566.4z"/>
		<path class="st0" d="M687.71,466.85c0,6.46,0,12.66,0,19.15c-0.92-0.09-1.71-0.01-2.37-0.27c-2.7-1.05-5.35-1.06-8.04,0.04    c-1.96,0.8-4.08,0.95-6.13,1.75c-3.78,1.47-6.83,3.75-9.43,6.58c-3.59,3.91-6.06,8.48-7.45,13.74c-0.61,2.32-0.62,4.69-1.28,6.89    c-1.84,6.11-1.1,12.33-1.16,18.5c-0.11,11.37-0.06,22.75,0,34.12c0.01,1.64,0.59,3.27,0.67,4.92c0.14,2.76,0.22,5.53,0.08,8.28    c-0.07,1.46-1.15,2.16-3,2.2c-3.86,0.07-7.71,0.03-11.57,0.03c-1.09,0-2.18,0.04-3.26-0.05c-1.83-0.16-2.43-0.77-2.62-2.57    c-0.06-0.59-0.04-1.18-0.04-1.78c-0.14-25.31-0.27-50.62-0.42-75.92c-0.06-9.89-0.16-19.78-0.26-29.67    c-0.01-1.07-0.11-2.14-0.2-3.6c5.77-0.31,11.44,0.01,17.25-0.24c0.15,1.08,0.33,1.84,0.34,2.59c0.12,4.94,0.21,9.88,0.31,14.82    c0.01,0.49,0,0.99,0.03,1.48c0.05,0.83,0.2,1.62,1.24,1.72c1.13,0.12,1.09-0.8,1.4-1.52c3.13-7.1,7.66-13.02,14.25-17.3    c5.96-3.86,12.5-4.88,19.41-4.33C686.22,466.52,686.95,466.71,687.71,466.85z"/>
		<path class="st0" d="M1113.08,523.7c0-2.88,0-5.32,0-7.99c4.31-1.6,8.58-3.13,12.81-4.77c4.06-1.58,8.07-3.3,12.12-4.91    c5.13-2.05,10.27-4.08,15.43-6.07c1.45-0.56,2.23,0,2.43,1.52c0.27,2.1-0.46,3.88-1.75,5.45c-0.35,0.43-0.89,0.77-1.41,0.95    c-1.74,0.62-3.52,1.12-5.27,1.72c-2.15,0.73-2.75,1.57-2.76,3.88c-0.02,4.35-0.03,8.7,0.01,13.04c0.02,2.04,0.48,2.67,2.31,3.26    c1.74,0.57,3.5,1.1,5.27,1.6c2.43,0.68,4.53,5,3.47,7.29c-0.61,1.31-1.8,1.12-2.82,0.71c-3.05-1.21-6.04-2.56-9.08-3.77    c-2.53-1.01-5.12-1.85-7.65-2.84c-4.7-1.84-9.37-3.74-14.06-5.59C1119.14,526.02,1116.15,524.89,1113.08,523.7z M1121.54,520.5    c5.8,2.09,11.34,4.08,16.88,6.08c1.4-2.67,1.44-10.71-0.03-13.41c-1.36,0.39-2.78,0.73-4.15,1.21c-3.65,1.28-7.1,3.14-10.96,3.82    C1121.93,518.43,1121.55,519.32,1121.54,520.5z"/>
		<path class="st0" d="M1151.33,584.18c-2.08,1.13-3.32-0.4-4.62-1.28c-0.99-0.67-0.92-2.59,0.06-3.78    c2.65-3.22,2.96-6.88,2.38-10.8c-0.28-1.89-0.96-3.4-2.89-3.92c-1.58-0.43-2.85-1.36-4.93-0.41c-2.12,0.97-2.87,2.62-3.77,4.18    c-0.9,1.57-1.1,3.53-1.65,5.31c-1.07,3.48-2.48,6.76-5.98,8.53c-5.88,2.96-11.58,1.17-15.09-3.46c-1.84-2.42-2.2-5.4-2.94-8.21    c-0.25-0.95,0.22-2.09,0.41-3.14c0.11-0.58,0.44-1.13,0.45-1.7c0.1-3.11,1.89-5.43,3.6-8.03c1.53,1.13,3.78,1.16,4.25,3.22    c-0.83,2.72-1.86,5.17-2.26,7.72c-0.36,2.27-0.31,4.7,1.59,6.6c1.9,1.91,5.6,1.84,7.29-0.27c1.62-2.02,2.29-4.49,3.2-6.84    c0.77-1.99,1.44-4.05,2.46-5.9c2.43-4.4,5.84-5.52,10.96-4.98c4.93,0.52,8.35,2.93,10.12,7.21c1.24,3.02,2.84,6.2,1.24,9.85    c-0.88,2.01-0.43,4.49-1.81,6.47C1152.58,581.72,1151.97,583.06,1151.33,584.18z"/>
		<path class="st0" d="M1116.6,456.44c1.35,1.27,3.69,0.93,3.95,3.24c-0.74,2.44-1.74,4.89-2.18,7.45c-0.38,2.19-0.31,4.5,1.34,6.43    c1.78,2.07,6.26,2.12,7.65-0.22c1.27-2.15,2.11-4.56,3.11-6.87c1.01-2.31,1.73-4.79,3.03-6.93c1.78-2.93,4.94-3.82,8.13-3.81    c4.18,0.02,8.16,0.96,10.84,4.69c1.14,1.59,2.3,3.15,2.4,5.23c0.03,0.67,0.37,1.31,0.53,1.98c0.18,0.75,0.57,1.55,0.44,2.26    c-0.77,4.41-1.41,8.89-4.19,12.62c-0.32,0.43-1.07,1.03-1.38,0.91c-1.32-0.5-2.8-1.02-3.72-1.99c-0.52-0.55-0.35-2.1-0.03-3.04    c0.43-1.22,1.54-2.21,1.96-3.44c1.22-3.58,1.97-7.37-0.66-10.57c-2.54-3.08-7.2-2.43-9.06,0.53c-1.38,2.2-2.09,4.61-2.76,7.05    c-0.75,2.75-1.74,5.26-3.91,7.3c-1.89,1.77-3.91,2.69-6.52,2.79c-3.48,0.14-6.62-0.35-9.15-2.98c-1.78-1.85-3.13-3.9-3.62-6.48    c-0.25-1.34-1.04-2.69-0.89-3.97c0.32-2.86,0.62-5.79,2.19-8.37c0.4-0.66,0.45-1.52,0.85-2.18    C1115.27,457.52,1115.88,457.13,1116.6,456.44z"/>
		<path class="st0" d="M1147.63,492.08c0-2.84,1.17-4.12,3.76-4.12c1.88,0,4.31,2.17,4.4,3.93c0.1,1.92-2.39,4.4-4.4,4.38    C1149.11,496.25,1147.63,494.6,1147.63,492.08z"/>
		<path class="st0" d="M1153.93,551.15c-2.02,0.22-4.25,1.08-5.87-1.11c-0.69-0.94-0.64-4.55,0.14-5.14    c1.96-1.49,4.08-1.43,6.17-0.24C1155.78,546.9,1155.73,549.03,1153.93,551.15z"/>
	</g>
	<g>
		<g>
			<circle class="st1" cx="252.82" cy="397.76" r="6.49"/>
			<circle class="st1" cx="227.16" cy="420.01" r="7.73"/>
			<path class="st1" d="M221.31,453.72c0,5.13-4.16,9.28-9.28,9.28c-5.13,0-9.28-4.16-9.28-9.28c0-5.13,4.16-9.28,9.28-9.28     C217.15,444.43,221.31,448.59,221.31,453.72z"/>
			<path class="st1" d="M218.5,492.05c0,6.66-5.4,12.06-12.06,12.06c-6.66,0-12.06-5.4-12.06-12.06c0-6.66,5.4-12.06,12.06-12.06     C213.1,479.98,218.5,485.38,218.5,492.05z"/>
			<path class="st1" d="M219.74,529.45c0,6.15-4.98,11.13-11.13,11.13c-6.15,0-11.13-4.98-11.13-11.13     c0-6.15,4.98-11.13,11.13-11.13C214.76,518.31,219.74,523.3,219.74,529.45z"/>
			<path class="st1" d="M232.73,567.46c0,6.15-4.98,11.13-11.13,11.13c-6.15,0-11.13-4.98-11.13-11.13     c0-6.15,4.98-11.13,11.13-11.13C227.74,556.33,232.73,561.31,232.73,567.46z"/>
			<path class="st1" d="M255.6,598.99c0,6.15-4.98,11.13-11.13,11.13c-6.15,0-11.13-4.98-11.13-11.13c0-6.15,4.98-11.13,11.13-11.13     C250.62,587.86,255.6,592.84,255.6,598.99z"/>
			<path class="st1" d="M284.04,626.19c0,6.15-4.98,11.13-11.13,11.13c-6.15,0-11.13-4.98-11.13-11.13     c0-6.15,4.98-11.13,11.13-11.13C279.06,615.06,284.04,620.04,284.04,626.19z"/>
			<path class="st1" d="M318.66,645.36c0,6.15-4.98,11.13-11.13,11.13c-6.15,0-11.13-4.98-11.13-11.13     c0-6.15,4.98-11.13,11.13-11.13C313.68,634.22,318.66,639.21,318.66,645.36z"/>
			<path class="st1" d="M354.44,657.1c0,5.45-4.41,9.86-9.86,9.86c-5.45,0-9.86-4.41-9.86-9.86c0-5.45,4.41-9.86,9.86-9.86     C350.03,647.24,354.44,651.66,354.44,657.1z"/>
			<path class="st1" d="M392.79,658.97c0,4.09-3.31,7.4-7.4,7.4c-4.09,0-7.4-3.31-7.4-7.4c0-4.09,3.31-7.4,7.4-7.4     C389.47,651.57,392.79,654.88,392.79,658.97z"/>
		</g>
		<g>
			<circle class="st2" cx="210.78" cy="667.3" r="10.82"/>
			<circle class="st2" cx="247.25" cy="316.77" r="12.67"/>
			<circle class="st2" cx="292.38" cy="305.33" r="11.13"/>
			<circle class="st2" cx="206.45" cy="342.12" r="13.29"/>
			<circle class="st2" cx="173.68" cy="375.5" r="14.53"/>
			<circle class="st2" cx="148.95" cy="415.07" r="14.53"/>
			<circle class="st2" cx="134.74" cy="462.05" r="14.53"/>
			<circle class="st2" cx="132.26" cy="509.65" r="15.15"/>
			<circle class="st2" cx="142.15" cy="558.49" r="13.29"/>
			<circle class="st2" cx="161.63" cy="603.31" r="11.13"/>
			<path class="st2" d="M193.21,637.34c0,5.82-4.72,10.54-10.54,10.54c-5.82,0-10.54-4.72-10.54-10.54     c0-5.82,4.72-10.54,10.54-10.54C188.49,626.81,193.21,631.52,193.21,637.34z"/>
			<circle class="st2" cx="245.71" cy="685.54" r="8.04"/>
			<circle class="st2" cx="275.38" cy="698.52" r="8.04"/>
			<circle class="st2" cx="313.71" cy="710.88" r="8.04"/>
			<circle class="st2" cx="362.55" cy="715.83" r="8.04"/>
			<circle class="st2" cx="399.64" cy="710.27" r="8.04"/>
		</g>
		<g>
			<path class="st3" d="M200.91,420.89c0.58,7.28-5.2,11.69-10.77,11.75c-7.53,0.07-12.01-5.35-12.21-11.56     c-0.17-5.16,4.03-11.37,11.23-11.62C195.52,409.23,201.47,414.11,200.91,420.89z"/>
			<circle class="st3" cx="219.43" cy="622.48" r="11.13"/>
			<circle class="st3" cx="194.08" cy="587.55" r="13.29"/>
			<circle class="st3" cx="178.01" cy="546.13" r="13.29"/>
			<circle class="st3" cx="170.28" cy="505.02" r="12.98"/>
			<circle class="st3" cx="176.05" cy="462.15" r="12.98"/>
			<circle class="st3" cx="252.82" cy="651.53" r="9.58"/>
			<circle class="st3" cx="212.63" cy="386.94" r="9.58"/>
			<circle class="st3" cx="292.69" cy="673.79" r="8.04"/>
			<circle class="st3" cx="245.09" cy="358.5" r="8.66"/>
			<circle class="st3" cx="276.62" cy="346.75" r="6.8"/>
			<circle class="st3" cx="335.97" cy="685.54" r="7.42"/>
			<circle class="st3" cx="444.46" cy="666.84" r="5.1"/>
			<circle class="st3" cx="417.88" cy="677.35" r="5.1"/>
			<circle class="st3" cx="380.79" cy="689.09" r="5.1"/>
		</g>
	</g>
</g>
<script xmlns=""/></svg>